Finally the Kiteboarding cinematic production EXEAT is finished, a new Flysurfer Team Video.

[The Latin word EXEAT ("he/she may leave") is most commonly used to describe a period of absence from school or some other institution]

Made by: StormCinema - Elsa Kremser & team
Riders: Sebastian Bubmann, Yusca Balogh, Lennart van Schuilenburg, Haiko Milke
Location: Kite-Village / Hamata / Egypt
Material: Flyboards & Flysurfer Psycho4 & Speed3

Music: Harald Björk "Glimt", StalkerRiesen Partywahn
General
Complete name : H:MoviesKiteBoarding Videosexeat_-_the_movie_1280x720.mp4
Format : MPEG-4
Format profile : Base Media
Codec ID : isom
File size : 142 MiB
Duration : 10mn 18s
Overall bit rate : 1 926 Kbps
Encoded date : UTC 2009-10-11 15:41:56
Tagged date : UTC 2009-10-12 15:41:59
Video
ID : 1
Format : AVC
Format/Info : Advanced Video Codec
Format profile : High@L3.1
Format settings, CABAC : Yes
Format settings, ReFrames : 4 frames
Codec ID : avc1
Codec ID/Info : Advanced Video Coding
Duration : 10mn 18s
Bit rate mode : Variable
Bit rate : 1 800 Kbps
Maximum bit rate : 7 391 Kbps
Width : 1 280 pixels
Height : 720 pixels
Display aspect ratio : 16:9
Frame rate mode : Constant
Frame rate : 25.000 fps
Color space : YUV
Chroma subsampling : 4:2:0
Bit depth : 8 bits
Scan type : Progressive
Bits/(Pixel*Frame) : 0.078
Stream size : 132 MiB (93%)
Writing library : x264 core 72 r1217 5e9ae4c
Encoding settings : cabac=1 / ref=4 / deblock=1:0:0 / analyse=0x3:0x113 / me=hex / subme=7 / psy=1 / psy_rd=1.0:0.0 / mixed_ref=1 / me_range=16 / chroma_me=1 / trellis=1 / 8x8dct=1 / cqm=0 / deadzone=21,11 / chroma_qp_offset=-2 / threads=8 / nr=0 / decimate=1 / mbaff=0 / bframes=4 / b_pyramid=0 / b_adapt=1 / b_bias=0 / direct=3 / wpredb=1 / keyint=75 / keyint_min=25 / scenecut=40 / rc_lookahead=40 / rc=2pass / mbtree=1 / bitrate=1800 / ratetol=1.0 / qcomp=0.60 / qpmin=10 / qpmax=51 / qpstep=4 / cplxblur=20.0 / qblur=0.5 / vbv_maxrate=2700 / vbv_bufsize=9000 / ip_ratio=1.40 / aq=1:1.00
Encoded date : UTC 2009-10-11 15:41:56
Tagged date : UTC 2009-10-11 15:41:58
Audio
ID : 2
Format : AAC
Format/Info : Advanced Audio Codec
Format version : Version 4
Format profile : LC
Format settings, SBR : No
Codec ID : 40
Duration : 10mn 18s
Bit rate mode : Variable
Bit rate : 126 Kbps
Maximum bit rate : 211 Kbps
Channel(s) : 2 channels
Channel positions : Front: L R
Sampling rate : 44.1 KHz
Stream size : 9.27 MiB (7%)
Encoded date : UTC 2009-10-11 15:41:58
Tagged date : UTC 2009-10-11 15:41:58
Enjoy and don't forget to Comment and Seed...